HIERARCHY
ROOT joint_Root
{
	OFFSET 0.0 0.0 0.0
	CHANNELS 6 Xposition Yposition Zposition Zrotation Xrotation Yrotation 
	JOINT Hips
	{
		OFFSET 4.5925 91.4895 -427.239
		CHANNELS 6 Xposition Yposition Zposition Zrotation Xrotation Yrotation 
		JOINT Spine
		{
			OFFSET 15.7357 0.0 0.0
			CHANNELS 6 Xposition Yposition Zposition Zrotation Xrotation Yrotation 
			JOINT Chest
			{
				OFFSET 8.98455 -0.406207 0.0
				CHANNELS 6 Xposition Yposition Zposition Zrotation Xrotation Yrotation 
				JOINT Neck
				{
					OFFSET 16.3773 0.0 0.0
					CHANNELS 6 Xposition Yposition Zposition Zrotation Xrotation Yrotation 
					JOINT Head
					{
						OFFSET 6.45672 0.0 0.0
						CHANNELS 6 Xposition Yposition Zposition Zrotation Xrotation Yrotation 
						End Site
						{
							OFFSET 0.0 0.0 0.0
						}
					}
				}
				JOINT Shoulder_L
				{
					OFFSET 12.9942 -0.242716 4.98039
					CHANNELS 6 Xposition Yposition Zposition Zrotation Xrotation Yrotation 
					JOINT UpperArm_L
					{
						OFFSET 5.34809 0.0 0.0
						CHANNELS 6 Xposition Yposition Zposition Zrotation Xrotation Yrotation 
						JOINT LowerArm_L
						{
							OFFSET 24.3286 1.87007e-05 0.0
							CHANNELS 6 Xposition Yposition Zposition Zrotation Xrotation Yrotation 
							JOINT Hand_L
							{
								OFFSET 22.2916 0.0 0.0
								CHANNELS 6 Xposition Yposition Zposition Zrotation Xrotation Yrotation 
								End Site
								{
									OFFSET 0.0 0.0 0.0
								}
							}
						}
					}
				}
				JOINT Shoulder_R
				{
					OFFSET 12.9945 -0.242716 -4.98039
					CHANNELS 6 Xposition Yposition Zposition Zrotation Xrotation Yrotation 
					JOINT UpperArm_R
					{
						OFFSET -5.34813 0.0 0.0
						CHANNELS 6 Xposition Yposition Zposition Zrotation Xrotation Yrotation 
						JOINT LowerArm_R
						{
							OFFSET -24.3289 0.000322201 0.0
							CHANNELS 6 Xposition Yposition Zposition Zrotation Xrotation Yrotation 
							JOINT Hand_R
							{
								OFFSET -22.2915 -0.000108084 0.0
								CHANNELS 6 Xposition Yposition Zposition Zrotation Xrotation Yrotation 
								End Site
								{
									OFFSET 0.0 0.0 0.0
								}
							}
						}
					}
				}
			}
		}
		JOINT UpperLeg_L
		{
			OFFSET -2.19248 -6.46944 0.0
			CHANNELS 6 Xposition Yposition Zposition Zrotation Xrotation Yrotation 
			JOINT LowerLeg_L
			{
				OFFSET 39.0811 0.0 -1.23785e-05
				CHANNELS 6 Xposition Yposition Zposition Zrotation Xrotation Yrotation 
				JOINT Foot_L
				{
					OFFSET 40.9854 0.0 -1.26872e-05
					CHANNELS 6 Xposition Yposition Zposition Zrotation Xrotation Yrotation 
					JOINT Toes_L
					{
						OFFSET 11.7543 0.0 0.0
						CHANNELS 6 Xposition Yposition Zposition Zrotation Xrotation Yrotation 
						End Site
						{
							OFFSET 0.0 0.0 0.0
						}
					}
				}
			}
		}
		JOINT UpperLeg_R
		{
			OFFSET -2.19251 6.46944 0.0
			CHANNELS 6 Xposition Yposition Zposition Zrotation Xrotation Yrotation 
			JOINT LowerLeg_R
			{
				OFFSET -39.0811 -0.00228153 -0.0401928
				CHANNELS 6 Xposition Yposition Zposition Zrotation Xrotation Yrotation 
				JOINT Foot_R
				{
					OFFSET -40.9854 0.0 0.0
					CHANNELS 6 Xposition Yposition Zposition Zrotation Xrotation Yrotation 
					JOINT Toes_R
					{
						OFFSET -11.7543 0.0 0.0
						CHANNELS 6 Xposition Yposition Zposition Zrotation Xrotation Yrotation 
						End Site
						{
							OFFSET 0.0 0.0 0.0
						}
					}
				}
			}
		}
	}
}
MOTION
Frames:	6
Frame Time:	0.0333333
0.000000 0.000000 0.000000 0.000000 0.000000 -0.000000 -2.975860 88.919800 2.994960 90.877400 -6.162670 12.400400 15.735700 0.000005 -0.000001 93.995200 83.670200 -88.591300 8.984550 -0.406207 -0.000000 4.851010 0.743920 10.764000 16.377300 -0.000001 -0.000001 18.220700 -5.691260 -1.174330 6.456720 -0.000001 -0.000000 6.750460 -8.468450 -5.132550 12.994200 -0.242716 4.980390 -86.296200 -8.197740 -65.582600 5.348090 -0.000007 -0.000001 -37.340000 -40.295700 -48.273800 24.328600 0.000019 0.000005 10.413000 11.932500 -41.617100 22.291600 -0.000001 0.000005 21.385800 4.890360 9.567710 12.994500 -0.242716 -4.980390 88.609700 4.783780 -73.773600 -5.348130 -0.000001 -0.000004 -61.742800 1.935840 3.043870 -24.328900 0.000322 -0.000009 -8.360020 -15.018000 -29.559200 -22.291500 -0.000108 -0.000004 21.349800 5.499000 -6.486410 -2.192480 -6.469440 -0.000000 -172.279000 -13.510300 2.516030 39.081100 -0.000007 -0.000012 -0.338843 0.458812 36.447400 40.985400 -0.000006 -0.000013 -2.592660 4.454340 -75.434500 11.754300 -0.000000 0.000003 -0.000074 -0.000793 -16.608100 -2.192510 6.469440 -0.000001 175.617000 12.426600 -179.402000 -39.081100 -0.002282 -0.040193 -0.185777 0.236586 38.629000 -40.985400 0.000008 0.000006 5.606390 6.646690 -77.462900 -11.754300 -0.000006 -0.000006 -0.000302 -0.004937 -16.774300
0.000000 0.000000 0.000000 0.000000 0.000000 -0.000000 -3.905560 88.863900 3.094200 90.193600 -0.905205 13.154000 15.735700 0.000005 -0.000001 90.075000 83.667800 -85.419800 8.984550 -0.406207 -0.000000 4.919410 -0.098406 9.303880 16.377300 -0.000001 -0.000001 18.145100 -5.960190 -3.936550 6.456720 -0.000001 -0.000000 7.416880 -8.417730 -2.772850 12.994200 -0.242716 4.980390 -85.334800 -10.087900 -65.020400 5.348090 -0.000007 -0.000001 -38.573200 -41.171700 -62.662000 24.328600 0.000019 0.000005 18.271300 13.787800 -54.159800 22.291600 -0.000001 0.000005 24.472700 4.896510 9.447580 12.994500 -0.242716 -4.980390 88.628200 4.730780 -73.808500 -5.348130 -0.000001 -0.000004 -62.648000 2.899470 5.039780 -24.328900 0.000322 -0.000009 -5.434680 -13.478500 -22.189000 -22.291500 -0.000108 -0.000004 17.755800 5.409360 -3.213950 -2.192480 -6.469440 -0.000000 -170.886000 -11.356900 2.186050 39.081100 -0.000007 -0.000012 -0.337155 0.447330 37.006200 40.985400 -0.000006 -0.000013 -2.107210 7.973110 -75.078400 11.754300 -0.000000 0.000003 -0.000067 -0.000729 -16.605700 -2.192510 6.469440 -0.000001 175.772000 16.962100 -177.328000 -39.081100 -0.002282 -0.040193 -0.091948 0.121819 38.016400 -40.985400 0.000008 0.000006 6.748690 5.290570 -77.940300 -11.754300 -0.000006 -0.000006 -0.000471 -0.007576 -16.881500
0.000000 0.000000 0.000000 0.000000 0.000000 -0.000000 -4.691900 88.696400 2.911730 89.757200 2.830050 12.968500 15.735700 0.000005 -0.000001 87.891500 83.664200 -83.994600 8.984550 -0.406207 -0.000000 4.928150 -0.561370 7.809120 16.377300 -0.000001 -0.000001 17.513400 -6.169320 -5.951380 6.456720 -0.000001 -0.000000 7.171220 -8.835270 -0.808702 12.994200 -0.242716 4.980390 -84.282700 -11.688300 -63.702200 5.348090 -0.000007 -0.000001 -39.468800 -45.357400 -75.864300 24.328600 0.000019 0.000005 28.915600 12.916600 -67.956100 22.291600 -0.000001 0.000005 27.663500 4.963120 8.104860 12.994500 -0.242716 -4.980390 88.675000 4.547430 -73.736100 -5.348130 -0.000001 -0.000004 -63.698000 4.314990 6.043870 -24.328900 0.000322 -0.000009 -1.282350 -4.534980 -15.748600 -22.291500 -0.000108 -0.000004 14.250800 5.347370 -1.294620 -2.192480 -6.469440 -0.000000 -170.012000 -10.194600 0.535606 39.081100 -0.000007 -0.000012 -0.329260 0.421077 38.024200 40.985400 -0.000006 -0.000013 -1.730120 10.716600 -74.888200 11.754300 -0.000000 0.000003 -0.000054 -0.000610 -16.601200 -2.192510 6.469440 -0.000001 176.509000 19.601400 -177.408000 -39.081100 -0.002282 -0.040193 -0.006736 0.012689 38.293700 -40.985400 0.000008 0.000006 7.661080 3.466130 -78.340000 -11.754300 -0.000006 -0.000006 -0.000458 -0.007385 -16.873800
0.000000 0.000000 0.000000 0.000000 0.000000 -0.000000 -5.257450 88.515000 2.682780 89.149000 4.820470 12.870500 15.735700 0.000005 -0.000001 87.532600 83.395000 -84.090100 8.984550 -0.406207 -0.000000 5.460350 -0.636346 6.907600 16.377300 -0.000001 -0.000001 16.507900 -6.233220 -7.318080 6.456720 -0.000001 -0.000000 6.165040 -9.542840 0.875571 12.994200 -0.242716 4.980390 -82.856100 -13.551600 -61.859600 5.348090 -0.000007 -0.000001 -43.828800 -51.230600 -87.603600 24.328600 0.000019 0.000005 29.756200 7.641740 -76.912600 22.291600 -0.000001 0.000005 36.487400 5.247590 1.724350 12.994500 -0.242716 -4.980390 88.794100 4.179900 -73.891900 -5.348130 -0.000001 -0.000004 -64.742000 3.322760 6.591120 -24.328900 0.000322 -0.000009 0.636349 2.946780 -12.224300 -22.291500 -0.000108 -0.000004 13.992000 5.321320 -0.536188 -2.192480 -6.469440 -0.000000 -169.408000 -8.602180 -0.891883 39.081100 -0.000007 -0.000012 -0.339751 0.418134 39.096000 40.985400 -0.000006 -0.000013 -1.874880 11.378100 -74.939600 11.754300 -0.000000 0.000003 -0.000053 -0.000595 -16.600700 -2.192510 6.469440 -0.000001 177.393000 21.055400 -177.740000 -39.081100 -0.002282 -0.040193 -0.006810 0.012625 38.635600 -40.985400 0.000008 0.000006 7.796930 2.598280 -78.513600 -11.754300 -0.000006 -0.000006 -0.000355 -0.005781 -16.808600
0.000000 0.000000 0.000000 0.000000 0.000000 -0.000000 -5.494400 88.490200 2.538960 88.639500 5.246850 12.780000 15.735700 0.000005 -0.000001 88.929700 83.212500 -85.439200 8.984550 -0.406207 -0.000000 5.825660 -0.311723 6.988990 16.377300 -0.000001 -0.000001 15.951300 -6.022550 -8.349220 6.456720 -0.000001 -0.000000 5.442190 -10.392000 1.746260 12.994200 -0.242716 4.980390 -81.739600 -14.701000 -60.227200 5.348090 -0.000007 -0.000001 -48.950100 -54.047900 -94.774900 24.328600 0.000019 0.000005 25.092400 5.598970 -78.231200 22.291600 -0.000001 0.000005 53.793700 5.473500 -5.465460 12.994500 -0.242716 -4.980390 88.942700 3.746660 -74.228500 -5.348130 -0.000001 -0.000004 -64.644300 1.457490 7.383220 -24.328900 0.000322 -0.000009 0.552927 2.685150 -11.661900 -22.291500 -0.000108 -0.000004 16.311000 5.293330 0.255688 -2.192480 -6.469440 -0.000000 -169.322000 -6.810960 -1.521960 39.081100 -0.000007 -0.000012 -0.347589 0.422721 39.430000 40.985400 -0.000006 -0.000013 -2.441330 10.191500 -74.966800 11.754300 -0.000000 0.000003 -0.000058 -0.000642 -16.602400 -2.192510 6.469440 -0.000001 177.962000 21.694000 -177.856000 -39.081100 -0.002282 -0.040193 -0.034347 0.047354 38.472600 -40.985400 0.000008 0.000006 7.715300 2.751300 -78.384000 -11.754300 -0.000006 -0.000006 -0.000453 -0.007304 -16.870500
0.000000 0.000000 0.000000 0.000000 0.000000 -0.000000 -5.507070 88.675000 2.579370 88.728300 4.261390 12.296100 15.735700 0.000005 -0.000001 91.931200 83.419700 -88.257500 8.984550 -0.406207 -0.000000 5.385980 0.366558 7.321650 16.377300 -0.000001 -0.000001 16.315300 -5.954220 -8.035370 6.456720 -0.000001 -0.000000 5.504040 -10.544900 1.396220 12.994200 -0.242716 4.980390 -82.029900 -13.754500 -59.507500 5.348090 -0.000007 -0.000001 -50.106600 -52.931400 -93.990200 24.328600 0.000019 0.000005 26.156700 8.355080 -73.512500 22.291600 -0.000001 0.000005 54.275700 5.397380 -2.821220 12.994500 -0.242716 -4.980390 88.930700 3.806890 -74.298300 -5.348130 -0.000001 -0.000004 -63.564600 -0.261907 7.893910 -24.328900 0.000322 -0.000009 -0.166780 -0.764150 -12.219300 -22.291500 -0.000108 -0.000004 19.730100 5.300460 0.062771 -2.192480 -6.469440 -0.000000 -169.758000 -6.227190 -1.326190 39.081100 -0.000007 -0.000012 -0.358362 0.449890 38.540000 40.985400 -0.000006 -0.000013 -3.041930 8.585630 -74.711100 11.754300 -0.000000 0.000003 -0.000066 -0.000724 -16.605600 -2.192510 6.469440 -0.000001 178.056000 21.370800 -178.033000 -39.081100 -0.002282 -0.040193 -0.031704 0.045157 37.768900 -40.985400 0.000008 0.000006 7.868020 3.435020 -78.047100 -11.754300 -0.000006 -0.000006 -0.000367 -0.005957 -16.815800
